<?xml version="1.0" encoding="UTF-8" standalone="yes"?>
<svg version="1.0" xmlns="http://www.w3.org/2000/svg" width="700.000000pt" height="400.000000pt" viewBox="0 0 875.000000 500.000000" preserveAspectRatio="xMidYMid meet">
  <metadata>
Created by potrace 1.10, written by Peter Selinger 2001-2011
</metadata>
  <g transform="translate(0.000000,500.000000) scale(0.100000,-0.100000)" fill="#000000" stroke="none">
    <path d="M4460 4235 l0 -85 -90 0 -90 0 0 -580 0 -580 -90 0 -90 0 0 -72 c0
-124 6 -118 -126 -118 l-114 0 0 -85 0 -85 -130 0 -130 0 0 -100 0 -100 -91 0
-91 0 4 -80 3 -80 -192 0 -193 0 0 100 0 100 -85 0 -85 0 0 84 0 83 -87 7
c-48 3 -89 8 -91 11 -3 3 -8 78 -11 167 l-6 163 -77 3 -78 3 0 -531 0 -530 80
0 80 0 0 -65 0 -65 90 0 90 0 0 -95 0 -95 195 0 195 0 0 -190 0 -190 65 0 65
0 0 -355 0 -355 200 0 200 0 0 90 0 90 -115 0 -115 0 0 90 0 90 100 0 100 0 0
85 0 85 85 0 85 0 0 90 0 90 95 0 95 0 0 -89 c0 -102 -2 -101 108 -101 l62 0
0 -260 0 -260 200 0 200 0 0 90 0 90 -124 0 -123 0 -5 353 c-3 245 -1 354 6
359 6 4 46 8 89 8 l77 0 0 95 0 95 94 0 94 0 4 111 c4 136 7 139 120 139 l78
0 0 300 0 300 85 0 85 0 0 -80 0 -80 85 0 85 0 0 160 0 160 -170 0 -170 0 0
203 0 203 340 -4 340 -5 0 67 0 66 -250 0 -250 0 0 105 0 105 298 0 c165 0
367 3 450 7 l152 6 0 389 0 388 -110 0 -110 0 0 85 0 85 -695 0 -695 0 0 -85z
m340 -205 l0 -90 -90 0 -90 0 0 90 0 90 90 0 90 0 0 -90z"/>
  </g>
</svg>