<?xml version="1.0" encoding="utf-8"?>
<!-- Generator: Adobe Illustrator 13.0.2, SVG Export Plug-In . SVG Version: 6.00 Build 14948)  -->
<!DOCTYPE svg PUBLIC "-//W3C//DTD SVG 1.1//EN" "http://www.w3.org/Graphics/SVG/1.1/DTD/svg11.dtd">
<svg version="1.1" id="Layer_1" xmlns="http://www.w3.org/2000/svg" xmlns:xlink="http://www.w3.org/1999/xlink" x="0px" y="0px"
	 viewBox="0 0 128 128" enable-background="new 0 0 128 128" xml:space="preserve">
<path fill="#1489CD" d="M95.417,90.397V68.536c0-11.713-6.255-17.164-14.589-17.164c-6.728,0-9.742,3.701-11.422,6.299v-5.4H56.73
	c0.168,3.578,0,38.127,0,38.127h12.676V69.103c0-1.133,0.079-2.273,0.418-3.088c0.914-2.277,2.997-4.635,6.497-4.635
	c4.591,0,6.423,3.496,6.423,8.619v20.404h12.673V90.397z M43.377,47.064c4.42,0,7.171-2.93,7.171-6.59
	c-0.082-3.739-2.751-6.587-7.086-6.587c-4.334,0-7.17,2.846-7.17,6.587c0,3.66,2.752,6.59,7.006,6.59H43.377z M63.988,120.011
	c-30.927,0-56-25.074-56-56c0-30.929,25.073-56,56-56c30.927,0,56,25.071,56,56C119.988,94.937,94.915,120.011,63.988,120.011z
	 M49.714,90.397V52.271H37.042v38.127H49.714z"/>
</svg>
