<?xml version="1.0" encoding="utf-8"?>
<!-- Generator: Adobe Illustrator 13.0.0, SVG Export Plug-In  -->
<!DOCTYPE svg PUBLIC "-//W3C//DTD SVG 1.1//EN" "http://www.w3.org/Graphics/SVG/1.1/DTD/svg11.dtd" [
	<!ENTITY ns_flows "http://ns.adobe.com/Flows/1.0/">
]>
<svg version="1.1"
	 xmlns="http://www.w3.org/2000/svg" xmlns:xlink="http://www.w3.org/1999/xlink" xmlns:a="http://ns.adobe.com/AdobeSVGViewerExtensions/3.0/"
	 x="0px" y="0px" viewBox="0 -11.988 128 128" enable-background="new 0 -11.988 128 128"
	 xml:space="preserve">
<defs>
</defs>
<path fill="#55ACEE" d="M128,12.314c-4.711,2.088-9.773,3.5-15.082,4.135c5.418-3.25,9.586-8.396,11.543-14.529
	c-5.07,3.01-10.691,5.195-16.672,6.373C103,3.189,96.172,0,88.617,0c-14.5,0-26.258,11.758-26.258,26.26
	c0,2.059,0.23,4.062,0.68,5.984C41.213,31.15,21.863,20.695,8.912,4.807C6.65,8.686,5.355,13.195,5.355,18.01
	c0,9.109,4.637,17.148,11.684,21.857c-4.305-0.137-8.355-1.318-11.895-3.285c-0.004,0.109-0.004,0.221-0.004,0.33
	c0,12.725,9.053,23.338,21.066,25.748c-2.203,0.602-4.523,0.922-6.918,0.922c-1.693,0-3.338-0.164-4.941-0.469
	c3.342,10.43,13.039,18.023,24.531,18.234C29.891,88.395,18.568,92.59,6.264,92.59c-2.119,0-4.209-0.125-6.264-0.367
	c11.621,7.453,25.426,11.801,40.256,11.801c48.303,0,74.717-40.016,74.717-74.719c0-1.139-0.027-2.271-0.074-3.396
	C120.027,22.205,124.477,17.58,128,12.314z"/>
</svg>
